<svg xmlns="http://www.w3.org/2000/svg" viewBox="0 0 420 140" role="img" aria-label="eFuture logo">
  <rect width="420" height="140" rx="8" fill="none"/>
  <circle cx="72" cy="70" r="43" fill="#10a1b3"/>
  <path d="M51 74c6 15 21 25 40 20 12-3 21-12 25-22H82v-16h53c1 7 0 15-3 23-9 28-38 44-67 34-28-10-43-40-32-68 11-29 43-43 71-30 13 6 22 15 28 27l-20 9c-4-7-10-12-18-16-17-8-37 1-44 19-3 7-3 14 1 20z" fill="#fff"/>
  <text x="136" y="79" fill="#104b6f" font-family="Arial, sans-serif" font-size="46" font-weight="800">eFuture</text>
  <text x="139" y="106" fill="#6b7a90" font-family="Arial, sans-serif" font-size="17" font-weight="700" letter-spacing="2">ELT PUBLISHING</text>
</svg>
