<?xml version="1.0" encoding="UTF-8" standalone="no"?>
<!-- Created with Inkscape (http://www.inkscape.org/) -->

<svg
   version="1.1"
   id="svg2"
   xml:space="preserve"
   width="343.98666"
   height="76.610397"
   viewBox="0 0 343.98666 76.610398"
   sodipodi:docname="b509dad7027dd945b961bd9e21759cb6.eps"
   xmlns:inkscape="http://www.inkscape.org/namespaces/inkscape"
   xmlns:sodipodi="http://sodipodi.sourceforge.net/DTD/sodipodi-0.dtd"
   xmlns="http://www.w3.org/2000/svg"
   xmlns:svg="http://www.w3.org/2000/svg"><defs
     id="defs6"><clipPath
       clipPathUnits="userSpaceOnUse"
       id="clipPath62"><path
         d="m 408.918,280.984 c 0,103 -73.723,113.079 -129.707,67.274 C 243.637,319.133 197.988,266.211 197.988,316.504 197.988,435.715 78.7813,382.988 0,280.77 L 0.0546875,170.344 C 78.832,272.488 197.988,325.168 197.988,205.984 c 0,-50.293 45.649,2.629 81.223,31.75 50.824,41.621 116.258,37.149 127.894,-41.132 h 1.813 z"
         id="path60" /></clipPath><linearGradient
       x1="0"
       y1="0"
       x2="1"
       y2="0"
       gradientUnits="userSpaceOnUse"
       gradientTransform="matrix(413.802,21.6865,21.6865,-413.802,-5.34668,273.447)"
       spreadMethod="pad"
       id="linearGradient76"><stop
         style="stop-opacity:1;stop-color:#ba0f32"
         offset="0"
         id="stop64" /><stop
         style="stop-opacity:1;stop-color:#ed1443"
         offset="0.2"
         id="stop66" /><stop
         style="stop-opacity:1;stop-color:#f46b75"
         offset="0.49"
         id="stop68" /><stop
         style="stop-opacity:1;stop-color:#ba0f32"
         offset="0.66"
         id="stop70" /><stop
         style="stop-opacity:1;stop-color:#f46b75"
         offset="0.85"
         id="stop72" /><stop
         style="stop-opacity:1;stop-color:#ba0f32"
         offset="1"
         id="stop74" /></linearGradient><clipPath
       clipPathUnits="userSpaceOnUse"
       id="clipPath86"><path
         d="m 408.918,425.707 c 0,103.023 -73.723,113.106 -129.707,67.266 -35.574,-29.121 -81.223,-82.067 -81.223,-31.735 0,119.207 -119.156,66.496 -197.9333125,-35.648 V 320.758 C 80.5273,416.918 197.988,469.867 197.988,350.719 c 0,-50.321 45.649,2.617 81.223,31.73 50.824,41.629 116.258,37.125 127.894,-41.094 h 1.813 z"
         id="path84" /></clipPath><linearGradient
       x1="0"
       y1="0"
       x2="1"
       y2="0"
       gradientUnits="userSpaceOnUse"
       gradientTransform="matrix(413.51,21.6711,21.6711,-413.51,-5.15625,420.117)"
       spreadMethod="pad"
       id="linearGradient100"><stop
         style="stop-opacity:1;stop-color:#ba0f32"
         offset="0"
         id="stop88" /><stop
         style="stop-opacity:1;stop-color:#ed1443"
         offset="0.2"
         id="stop90" /><stop
         style="stop-opacity:1;stop-color:#f46b75"
         offset="0.49"
         id="stop92" /><stop
         style="stop-opacity:1;stop-color:#ba0f32"
         offset="0.66"
         id="stop94" /><stop
         style="stop-opacity:1;stop-color:#f46b75"
         offset="0.85"
         id="stop96" /><stop
         style="stop-opacity:1;stop-color:#ba0f32"
         offset="1"
         id="stop98" /></linearGradient></defs><sodipodi:namedview
     id="namedview4"
     pagecolor="#ffffff"
     bordercolor="#666666"
     borderopacity="1.0"
     inkscape:pageshadow="2"
     inkscape:pageopacity="0.0"
     inkscape:pagecheckerboard="0" /><g
     id="g8"
     inkscape:groupmode="layer"
     inkscape:label="ink_ext_XXXXXX"
     transform="matrix(1.3333333,0,0,-1.3333333,0,76.610398)"><g
       id="g10"
       transform="scale(0.1)"><path
         d="m 907.07,449.859 c -15.371,0 -30.054,-3.828 -43.629,-11.367 -12.711,-7.066 -22.64,-17.672 -29.535,-31.551 -4.515,13.883 -12.722,24.485 -24.426,31.532 -12.562,7.55 -26.726,11.386 -42.097,11.386 -18.945,0 -34.785,-4.152 -47.055,-12.336 -11.66,-7.777 -21.289,-18.543 -28.664,-32.015 v 37.637 H 663.113 V 209.551 h 30.793 v 130.215 c 0,12.043 1.364,23.308 4.032,33.488 2.632,10.121 6.691,19.012 12.097,26.418 5.399,7.433 12.453,13.332 20.981,17.523 8.64,4.215 18.925,6.344 30.55,6.344 8.649,0 16.153,-1.461 22.278,-4.344 6.043,-2.882 10.914,-6.894 14.492,-11.914 3.605,-5.008 6.25,-11.031 7.871,-17.894 1.613,-7.043 2.441,-14.407 2.441,-21.883 V 209.551 h 30.762 v 132.015 c 0,10.645 0.973,21.036 2.887,30.875 1.867,9.661 5.191,18.477 9.875,26.2 4.629,7.492 10.969,13.593 18.824,18.144 7.891,4.485 17.922,6.754 29.817,6.754 19.753,0 33.734,-4.887 41.511,-14.519 7.828,-9.766 11.801,-24.176 11.801,-42.832 V 209.551 h 30.777 v 157.953 c 0,54.644 -26.187,82.355 -77.832,82.355"
         style="fill:#444142;fill-opacity:1;fill-rule:nonzero;stroke:none"
         id="path12" /><path
         d="m 1183.76,334.242 v -33.883 c 0,-11.136 -2.15,-21.187 -6.38,-29.863 -4.25,-8.777 -10.01,-16.316 -17.14,-22.41 -7.03,-6.074 -15.54,-10.813 -25.28,-14.094 -15.65,-5.183 -33.43,-7.137 -49.31,-1.785 -6.13,2.059 -11.57,5.066 -16.18,8.965 -4.69,3.965 -8.31,8.508 -11.05,13.918 -2.73,5.293 -4.12,11.48 -4.12,18.418 0,10.922 3.24,19.414 9.64,25.242 6.55,5.953 15.03,10.602 25.25,13.816 10.44,3.262 22.04,5.739 34.49,7.352 12.71,1.629 25.03,3.496 36.96,5.566 4.25,0.707 8.83,1.789 13.61,3.211 4.21,1.239 7.39,3.09 9.51,5.547 z m 46.03,-98.383 c -10.26,0 -15.25,5.137 -15.25,15.723 v 122.676 c 0,15.719 -2.61,28.637 -7.77,38.41 -5.17,9.887 -11.93,17.645 -20.08,23.086 -8.32,5.523 -17.4,9.18 -27.78,11.172 -23.88,4.527 -48.01,3.672 -67.78,-1.574 -11.12,-3.028 -20.97,-7.786 -29.28,-14.129 -8.35,-6.371 -15.03,-14.653 -19.86,-24.641 -4.82,-9.883 -7.72,-21.793 -8.61,-35.406 l -0.08,-1.375 h 30.8 l 0.04,1.254 c 0.59,18.304 6.44,31.758 17.36,39.976 11.07,8.305 25.57,12.508 43.12,12.508 8.33,0 16.16,-0.668 23.29,-1.996 7.14,-1.316 13.45,-3.746 18.76,-7.23 5.31,-3.43 9.53,-8.141 12.51,-14.008 3.04,-5.942 4.58,-13.649 4.58,-22.918 0,-6.063 -0.8,-11.02 -2.35,-14.735 -1.52,-3.589 -3.72,-6.5 -6.53,-8.644 -2.84,-2.121 -6.44,-3.625 -10.68,-4.465 -4.46,-0.891 -9.61,-1.633 -15.54,-2.23 -15.24,-1.817 -30.26,-3.672 -45.01,-5.579 -14.71,-1.937 -28.22,-5.347 -40.18,-10.14 -11.96,-4.883 -21.7,-12.02 -28.93,-21.211 -7.33,-9.289 -11.03,-22.293 -11.03,-38.656 0,-11.836 2.07,-22.176 6.17,-30.75 4.11,-8.704 9.8,-15.938 16.91,-21.504 7.1,-5.594 15.55,-9.754 25.11,-12.356 9.51,-2.547 19.79,-3.836 30.54,-3.836 11.31,0 21.29,1.067 29.64,3.172 8.28,2.102 15.78,5.18 22.29,9.121 6.43,3.852 12.4,8.828 17.75,14.778 4.83,5.363 9.63,11.457 14.11,17.707 0.11,-4.789 0.49,-9.309 1.13,-13.469 0.73,-5.086 2.37,-9.551 4.89,-13.25 2.49,-3.774 6.04,-6.731 10.6,-8.789 4.56,-2.016 10.38,-3 17.78,-3 3.94,0 7.16,0.176 9.73,0.461 2.6,0.269 5.52,0.73 8.86,1.328 l 1.07,0.183 v 26.77 l -1.8,-0.766 c -2.64,-1.132 -5.42,-1.668 -8.5,-1.668"
         style="fill:#444142;fill-opacity:1;fill-rule:nonzero;stroke:none"
         id="path14" /><path
         d="m 1433.1,293.789 c -0.89,-9.402 -3.25,-18.152 -7.02,-25.984 -3.83,-7.934 -8.72,-14.809 -14.53,-20.461 -5.8,-5.633 -12.59,-10.137 -20.17,-13.391 -7.61,-3.191 -15.73,-4.793 -24.14,-4.793 -13.13,0 -24.81,2.781 -34.71,8.313 -9.92,5.562 -18.29,12.976 -24.88,22.019 -6.56,8.992 -11.61,19.485 -15.04,31.172 -3.37,11.566 -5.09,23.57 -5.09,35.676 0,12.105 1.72,24.113 5.09,35.672 3.43,11.699 8.48,22.168 15.04,31.14 6.56,9.051 14.93,16.461 24.88,22.02 9.9,5.555 21.58,8.367 34.71,8.367 18.4,0 32.86,-4.848 42.98,-14.43 10.2,-9.597 17.31,-23.078 21.1,-40.078 l 0.23,-1.008 h 30.76 l -0.17,1.454 c -3.34,26.793 -13.85,47.117 -31.22,60.406 -17.31,13.254 -38.72,19.976 -63.68,19.976 -17.66,0 -33.59,-3.359 -47.35,-9.976 -13.71,-6.68 -25.36,-15.695 -34.65,-26.778 -9.32,-11.093 -16.48,-24.257 -21.27,-39.128 -4.82,-14.914 -7.25,-30.946 -7.25,-47.637 0,-16.711 2.43,-32.742 7.25,-47.649 4.8,-14.875 11.97,-28.039 21.26,-39.113 9.3,-11.133 20.96,-20.058 34.67,-26.531 13.68,-6.484 29.59,-9.766 47.34,-9.766 26.47,0 48.45,8.02 65.36,23.86 16.88,15.855 27.42,38.191 31.31,66.351 l 0.2,1.473 h -30.91 l -0.1,-1.176"
         style="fill:#444142;fill-opacity:1;fill-rule:nonzero;stroke:none"
         id="path16" /><path
         d="m 1744.66,449.859 c -15.38,0 -30.06,-3.828 -43.61,-11.367 -12.71,-7.058 -22.64,-17.668 -29.55,-31.554 -4.53,13.871 -12.73,24.468 -24.43,31.531 -12.54,7.554 -26.69,11.39 -42.08,11.39 -18.95,0 -34.8,-4.152 -47.08,-12.336 -11.61,-7.75 -21.23,-18.5 -28.63,-31.972 v 37.594 h -28.56 V 209.551 h 30.79 v 130.215 c 0,12.082 1.34,23.343 3.99,33.48 2.64,10.094 6.72,18.981 12.12,26.426 5.39,7.422 12.46,13.32 20.98,17.523 8.65,4.215 18.94,6.344 30.6,6.344 8.64,0 16.13,-1.461 22.26,-4.344 6.01,-2.882 10.88,-6.894 14.49,-11.91 3.58,-5.027 6.22,-11.051 7.84,-17.898 1.61,-6.969 2.41,-14.332 2.41,-21.883 V 209.551 h 30.79 v 132.015 c 0,10.625 0.98,21.012 2.91,30.875 1.88,9.766 5.22,18.582 9.9,26.207 4.63,7.512 10.96,13.618 18.8,18.137 7.85,4.485 17.86,6.754 29.8,6.754 19.77,0 33.76,-4.887 41.51,-14.519 7.84,-9.754 11.83,-24.161 11.83,-42.832 V 209.551 h 30.76 v 157.953 c 0,54.644 -26.18,82.355 -77.84,82.355"
         style="fill:#444142;fill-opacity:1;fill-rule:nonzero;stroke:none"
         id="path18" /><path
         d="m 1883.03,209.551 h 30.81 v 233.594 h -30.81 V 209.551"
         style="fill:#444142;fill-opacity:1;fill-rule:nonzero;stroke:none"
         id="path20" /><path
         d="m 1974.79,209.551 h 30.81 v 322.234 h -30.81 V 209.551"
         style="fill:#444142;fill-opacity:1;fill-rule:nonzero;stroke:none"
         id="path22" /><path
         d="m 2066.55,209.551 h 30.83 v 322.234 h -30.83 V 209.551"
         style="fill:#444142;fill-opacity:1;fill-rule:nonzero;stroke:none"
         id="path24" /><path
         d="m 2296.66,334.246 v -33.887 c 0,-11.097 -2.14,-21.132 -6.35,-29.863 -4.26,-8.75 -10.04,-16.285 -17.17,-22.41 -7.07,-6.074 -15.57,-10.82 -25.28,-14.094 -15.7,-5.183 -33.34,-7.129 -49.32,-1.785 -6.09,2.039 -11.52,5.051 -16.13,8.965 -4.7,3.957 -8.34,8.508 -11.12,13.906 -2.72,5.352 -4.09,11.563 -4.09,18.43 0,10.926 3.24,19.418 9.66,25.242 6.51,5.938 14.99,10.59 25.22,13.816 10.46,3.274 22.06,5.743 34.47,7.352 12.7,1.629 25.06,3.496 36.99,5.566 4.15,0.684 8.73,1.774 13.59,3.211 4.2,1.227 7.4,3.086 9.53,5.551 z m 46.05,-98.387 c -10.28,0 -15.29,5.137 -15.29,15.723 v 122.676 c 0,15.691 -2.6,28.613 -7.72,38.41 -5.22,9.906 -11.99,17.664 -20.13,23.078 -8.13,5.442 -17.48,9.195 -27.79,11.18 -23.74,4.515 -47.92,3.672 -67.73,-1.574 -11.18,-3.047 -21.04,-7.801 -29.31,-14.129 -8.41,-6.438 -15.08,-14.723 -19.86,-24.641 -4.85,-9.934 -7.77,-21.848 -8.65,-35.406 l -0.09,-1.375 h 30.87 l 0.04,1.258 c 0.56,18.316 6.4,31.769 17.39,39.972 11.03,8.305 25.51,12.508 43.06,12.508 8.33,0 16.15,-0.668 23.26,-1.996 7.25,-1.324 13.39,-3.688 18.82,-7.23 5.3,-3.415 9.51,-8.125 12.51,-14.016 3.03,-5.895 4.57,-13.602 4.57,-22.91 0,-6.032 -0.8,-10.996 -2.35,-14.735 -1.54,-3.605 -3.73,-6.515 -6.53,-8.644 -2.85,-2.117 -6.44,-3.625 -10.68,-4.465 -4.41,-0.891 -9.61,-1.633 -15.56,-2.23 -15.21,-1.817 -30.21,-3.672 -45.02,-5.579 -14.78,-1.961 -28.29,-5.367 -40.15,-10.14 -11.89,-4.84 -21.63,-11.977 -29,-21.223 -7.27,-9.32 -10.95,-22.324 -10.95,-38.644 0,-11.856 2.06,-22.207 6.13,-30.75 4.13,-8.68 9.81,-15.918 16.95,-21.504 7.12,-5.618 15.56,-9.766 25.08,-12.356 9.5,-2.547 19.79,-3.836 30.54,-3.836 11.33,0 21.31,1.067 29.68,3.172 8.28,2.11 15.77,5.18 22.27,9.121 6.52,3.938 12.5,8.906 17.72,14.778 4.78,5.324 9.58,11.433 14.14,17.714 0.09,-4.992 0.46,-9.445 1.11,-13.496 0.75,-5.058 2.41,-9.504 4.89,-13.23 2.53,-3.774 6.1,-6.731 10.63,-8.789 4.54,-2.016 10.35,-3 17.75,-3 3.94,0 7.19,0.176 9.76,0.461 2.57,0.269 5.51,0.73 8.82,1.328 l 1.07,0.183 v 26.778 l -1.8,-0.774 c -2.59,-1.109 -5.43,-1.668 -8.45,-1.668"
         style="fill:#444142;fill-opacity:1;fill-rule:nonzero;stroke:none"
         id="path26" /><path
         d="m 2575.85,396.941 c -2.71,11.18 -7.46,20.77 -14.12,28.504 -6.62,7.692 -15.62,13.77 -26.75,18.063 -11.04,4.211 -24.81,6.351 -40.95,6.351 -16.6,0 -32.03,-4.367 -45.89,-12.968 -12.82,-7.926 -22.17,-18.383 -27.59,-30.485 v 36.739 h -30.78 V 209.551 h 30.78 v 136.008 c 0.31,11.203 2.16,21.687 5.49,31.152 3.43,9.555 8.18,17.863 14.1,24.68 5.97,6.797 13.37,12.265 21.97,16.23 8.6,3.926 18.58,5.918 29.67,5.918 11.11,0 20.49,-1.758 27.87,-5.23 7.39,-3.496 13.32,-8.332 17.64,-14.383 4.32,-6.02 7.41,-13.313 9.19,-21.664 1.74,-8.285 2.64,-17.457 2.64,-27.266 V 209.551 h 30.78 v 149.922 c 0,13.742 -1.36,26.351 -4.05,37.468"
         style="fill:#444142;fill-opacity:1;fill-rule:nonzero;stroke:none"
         id="path28" /><path
         d="m 1899.04,531.785 c -10.69,0 -19.38,-8.711 -19.38,-19.406 0,-10.672 8.69,-19.352 19.38,-19.352 10.69,0 19.38,8.68 19.38,19.352 0,10.695 -8.69,19.406 -19.38,19.406"
         style="fill:#444142;fill-opacity:1;fill-rule:nonzero;stroke:none"
         id="path30" /><path
         d="m 705.453,57.6758 h -26.855 v 47.4692 h 27.511 c 18.598,0 29.258,-8.5903 29.258,-23.5825 0,-14.5195 -11.75,-23.8867 -29.914,-23.8867 z m 1.633,61.9532 H 663.191 V 3.19141 h 15.407 V 43.3672 h 26.363 c 22.906,0 46.008,11.9648 46.008,38.6836 0,22.8322 -17.219,37.5782 -43.883,37.5782"
         style="fill:#ed1948;fill-opacity:1;fill-rule:nonzero;stroke:none"
         id="path32" /><path
         d="m 826.949,40.4297 c 0,-14.7461 -9.84,-25.0469 -23.929,-25.0469 -13.75,0 -21.961,9.0117 -21.961,24.0703 v 50.4102 h -15.09 V 36.3555 c 0,-21.2188 13.129,-34.94925 33.469,-34.94925 11.574,0 20.605,4.44531 27.511,13.54295 V 3.19141 h 14.926 V 89.8633 H 826.949 V 40.4297"
         style="fill:#ed1948;fill-opacity:1;fill-rule:nonzero;stroke:none"
         id="path34" /><path
         d="m 914.418,77.8516 c 16.406,0 28.312,-13.211 28.312,-31.3985 0,-18.3945 -11.652,-31.2187 -28.312,-31.2187 -14.305,0 -29.113,11.7383 -29.113,31.3672 0,19.5586 14.808,31.25 29.113,31.25 z m 2.266,13.8086 c -12.411,0 -22.543,-5.2422 -30.887,-16.0157 V 124.504 H 870.703 V 3.19141 h 15.094 V 16.6797 c 8.121,-10.13673 18.488,-15.27345 30.887,-15.27345 20.097,0 41.453,15.85155 41.453,45.19535 0,29.2773 -21.356,45.0586 -41.453,45.0586"
         style="fill:#ed1948;fill-opacity:1;fill-rule:nonzero;stroke:none"
         id="path36" /><path
         d="m 979.805,3.19141 h 15.09 V 124.504 h -15.09 V 3.19141"
         style="fill:#ed1948;fill-opacity:1;fill-rule:nonzero;stroke:none"
         id="path38" /><path
         d="m 1025.01,105.637 h 16.9 v 16.422 h -16.9 v -16.422"
         style="fill:#ed1948;fill-opacity:1;fill-rule:nonzero;stroke:none"
         id="path40" /><path
         d="m 1025.82,3.19141 h 15.12 V 89.8633 h -15.12 V 3.19141"
         style="fill:#ed1948;fill-opacity:1;fill-rule:nonzero;stroke:none"
         id="path42" /><path
         d="m 1102.69,53.8281 c -10.43,3.1758 -20.3,6.1836 -20.3,13.4453 0,6.5157 6.02,10.8907 14.97,10.8907 7.67,0 16.26,-2.8203 24.19,-7.9219 l 1.12,-0.7227 7.02,11.6407 -1.04,0.6875 c -9,5.9257 -20.57,9.4804 -30.97,9.4804 -17.61,0 -29.89,-10.4297 -29.89,-25.7031 0,-16.8164 16.6,-21.5234 28.73,-24.9727 11.35,-3.1718 20.03,-6.1796 20.03,-13.8867 0,-7.1953 -6.47,-12.0312 -16.1,-12.0312 -9.41,0 -19.21,3.625 -28.33,10.4687 l -1.07,0.793 -7.8,-11.0078 0.94,-0.7695 c 9.62,-7.80083 23.27,-12.64849 35.6,-12.64849 18.68,0 31.23,10.65629 31.23,26.82809 0,16.9219 -16.81,21.9727 -28.33,25.4297"
         style="fill:#ed1948;fill-opacity:1;fill-rule:nonzero;stroke:none"
         id="path44" /><path
         d="m 1194.27,91.6602 c -11.52,0 -20.74,-4.543 -27.47,-13.5079 v 46.3517 h -15.11 V 3.19141 h 15.11 V 52.6289 c 0,14.7422 9.83,25.0391 23.9,25.0391 13.75,0 21.97,-8.9766 21.97,-24.0547 V 3.19141 h 15.11 V 56.6992 c 0,21.2227 -13.16,34.961 -33.51,34.961"
         style="fill:#ed1948;fill-opacity:1;fill-rule:nonzero;stroke:none"
         id="path46" /><path
         d="m 1287.95,78.4766 c 16.52,0 23.9,-13.1719 25.4,-26.0157 h -51.25 c 2.07,15.3907 12.55,26.0157 25.85,26.0157 z m 0.32,13.1836 c -23.72,0 -41.6,-19.4414 -41.6,-45.2071 0,-25.7695 18.58,-45.21482 43.23,-45.21482 14.58,0 25.57,5.01172 35.61,16.22262 l 0.87,0.9571 -9.73,8.6914 -0.86,-0.9102 c -7.45,-7.8203 -15.57,-11.4648 -25.55,-11.4648 -14.9,0 -26.06,10.3437 -28.14,25.8711 h 66.38 l 0.12,1.1601 c 0.16,1.5157 0.16,2.8633 0.16,4.0274 0,27.4297 -16.27,45.8672 -40.49,45.8672"
         style="fill:#ed1948;fill-opacity:1;fill-rule:nonzero;stroke:none"
         id="path48" /><path
         d="M 1366.49,72.0039 V 89.8633 H 1351.4 V 3.19141 h 15.09 V 37.9883 c 0,22.625 12.59,37.2539 33.03,37.2539 h 1.29 v 16.0351 l -2.73,0.0782 c -12.98,0 -24.48,-7.1367 -31.59,-19.3516"
         style="fill:#ed1948;fill-opacity:1;fill-rule:nonzero;stroke:none"
         id="path50" /><path
         d="m 1449.23,53.8398 c -10.43,3.1915 -20.3,6.1875 -20.3,13.4336 0,6.4102 6.16,10.8907 14.98,10.8907 7.58,0 16.39,-2.8828 24.17,-7.9219 l 1.13,-0.7227 7.03,11.6407 -1.05,0.6875 c -9,5.9257 -20.56,9.4804 -30.94,9.4804 -17.62,0 -29.93,-10.4297 -29.93,-25.7031 0,-16.8164 16.61,-21.5234 28.76,-24.9727 11.33,-3.1523 20.03,-6.1718 20.03,-13.8867 0,-7.1953 -6.48,-12.0312 -16.12,-12.0312 -9.39,0 -19.18,3.625 -28.31,10.4687 l -1.04,0.793 -7.85,-11.0078 0.95,-0.7695 c 9.64,-7.80083 23.3,-12.64849 35.62,-12.64849 18.67,0 31.21,10.65629 31.21,26.82809 0,16.9141 -16.8,21.9727 -28.34,25.4414"
         style="fill:#ed1948;fill-opacity:1;fill-rule:nonzero;stroke:none"
         id="path52" /><path
         d="M 526.957,574.578 V 0 h 15.039 v 574.578 h -15.039"
         style="fill:#7b7979;fill-opacity:1;fill-rule:nonzero;stroke:none"
         id="path54" /><g
         id="g56"><g
           id="g58"
           clip-path="url(#clipPath62)"><path
             d="m 408.918,280.984 c 0,103 -73.723,113.079 -129.707,67.274 C 243.637,319.133 197.988,266.211 197.988,316.504 197.988,435.715 78.7813,382.988 0,280.77 L 0.0546875,170.344 C 78.832,272.488 197.988,325.168 197.988,205.984 c 0,-50.293 45.649,2.629 81.223,31.75 50.824,41.621 116.258,37.149 127.894,-41.132 h 1.813 v 84.382 0"
             style="fill:url(#linearGradient76);fill-opacity:1;fill-rule:nonzero;stroke:none"
             id="path78" /></g></g><g
         id="g80"><g
           id="g82"
           clip-path="url(#clipPath86)"><path
             d="m 408.918,425.707 c 0,103.023 -73.723,113.106 -129.707,67.266 -35.574,-29.121 -81.223,-82.067 -81.223,-31.735 0,119.207 -119.156,66.496 -197.9333125,-35.648 V 320.758 C 80.5273,416.918 197.988,469.867 197.988,350.719 c 0,-50.321 45.649,2.617 81.223,31.73 50.824,41.629 116.258,37.125 127.894,-41.094 h 1.813 v 84.352 0"
             style="fill:url(#linearGradient100);fill-opacity:1;fill-rule:nonzero;stroke:none"
             id="path102" /></g></g></g></g></svg>
